<svg width="35" height="36" viewBox="0 0 35 36" fill="none" xmlns="http://www.w3.org/2000/svg">
<g clip-path="url(#clip0_6_108)">
<path d="M23.9242 23.827C23.6459 24.3917 23.5536 25.0311 23.6604 25.6523C23.7673 26.2735 24.0679 26.8443 24.5185 27.2817C24.9213 27.6887 25.4317 27.9704 25.9889 28.0933C26.5461 28.2162 27.1266 28.175 27.6613 27.9748C28.1959 27.7745 28.6621 27.4236 29.0044 26.9638C29.3466 26.5041 29.5504 25.9549 29.5914 25.3817C29.6325 24.8085 29.5091 24.2355 29.2359 23.731C28.9627 23.2265 28.5514 22.8118 28.0508 22.5363C27.5502 22.2608 26.9816 22.1361 26.4126 22.1771C25.8436 22.2181 25.2984 22.423 24.8418 22.7675L22.0072 20.0038C22.506 19.3643 22.8221 18.5998 22.9216 17.7927L28.3623 17.7006C28.5109 18.2297 28.7767 18.7179 29.1396 19.1286C29.56 19.5434 30.0931 19.8233 30.6715 19.9328C31.2498 20.0424 31.8474 19.9766 32.3887 19.744C32.93 19.5113 33.3906 19.1222 33.7123 18.6257C34.034 18.1293 34.2024 17.5479 34.1961 16.955C34.1898 16.3622 34.0092 15.7845 33.677 15.2951C33.3449 14.8057 32.8761 14.4266 32.33 14.2056C31.7839 13.9846 31.1851 13.9318 30.6092 14.0537C30.0333 14.1757 29.5062 14.467 29.0947 14.8907C28.7318 15.3014 28.466 15.7896 28.3174 16.3187L22.8734 16.4075C22.7812 15.8087 22.5068 15.1638 22.1386 14.6111L30.7357 5.67812C31.2962 5.95856 31.9309 6.0517 32.5475 5.94401C33.1641 5.83633 33.7307 5.53343 34.1648 5.0793C34.7084 4.50706 35.008 3.74319 34.9996 2.95117C34.9912 2.15915 34.6755 1.4019 34.1199 0.841486C32.9769 -0.310092 31.0566 -0.26403 29.9136 0.887549C29.4285 1.40098 29.1394 2.07075 29.0974 2.7783C29.0554 3.48586 29.2633 4.18557 29.6842 4.75356L21.2258 13.5056C20.5914 13.0033 19.8328 12.685 19.0321 12.5851L18.9398 7.05754C19.4649 6.90786 19.9495 6.64011 20.3571 6.27447C20.6305 5.99324 20.8463 5.66051 20.9921 5.29528C21.1378 4.93005 21.2108 4.53947 21.2067 4.14583C21.2027 3.7522 21.1217 3.36323 20.9684 3.00113C20.8152 2.63902 20.5926 2.31088 20.3135 2.03543C20.0343 1.75998 19.7041 1.54262 19.3415 1.39575C18.979 1.24889 18.5914 1.17541 18.2007 1.1795C17.8099 1.18358 17.4239 1.26516 17.0645 1.41957C16.705 1.57398 16.3793 1.7982 16.1059 2.07943C14.9629 3.23101 15.0078 5.16566 16.1508 6.31724C16.5585 6.68264 17.0431 6.9501 17.5682 7.09949L17.6596 12.6271C16.8515 12.7616 16.0938 13.1115 15.465 13.6405L10.7991 9.08679C11.622 7.88915 11.4849 6.23088 10.4333 5.22078C9.86522 4.67323 9.10697 4.37148 8.32083 4.38009C7.5347 4.3887 6.78314 4.70699 6.227 5.26684C5.08398 6.41842 5.1297 8.35307 6.27272 9.50465C7.23285 10.4259 8.60447 10.5641 9.74749 10.0113L14.5024 14.7098C14.1414 15.2653 13.9071 15.8946 13.8166 16.5523L5.81551 16.6444C5.66694 16.1154 5.40119 15.6271 5.03826 15.2165C4.47441 14.6602 3.7143 14.3523 2.92516 14.3607C2.13602 14.369 1.38248 14.6928 0.830324 15.2609C0.278163 15.829 -0.0273916 16.5948 -0.0191236 17.3898C-0.0108555 18.1849 0.310559 18.9441 0.874412 19.5004C2.01743 20.6519 3.9377 20.6059 5.08072 19.4543C5.44364 19.0436 5.70939 18.5554 5.85797 18.0263L13.8591 17.9342C13.9923 18.7485 14.3396 19.512 14.8649 20.1452L13.4117 21.7542C12.2229 20.925 10.577 21.0632 9.57441 22.1227C9.03102 22.695 8.73149 23.4588 8.73989 24.2508C8.74828 25.0427 9.06392 25.8 9.61931 26.3605C10.7623 27.5121 12.6826 27.466 13.8256 26.3144C14.74 25.3471 14.8772 23.9652 14.3285 22.8136L15.968 21.0139C16.5191 21.378 17.1438 21.614 17.7968 21.7048L17.7053 30.1344C17.1802 30.2841 16.6956 30.5518 16.288 30.9174C15.7445 31.4898 15.445 32.2537 15.4536 33.0457C15.4621 33.8377 15.778 34.5949 16.3337 35.1552C17.4767 36.3068 19.397 36.2608 20.54 35.1092C21.0835 34.5368 21.383 33.7729 21.3745 32.9809C21.3659 32.1889 21.05 31.4317 20.4943 30.8714C20.0867 30.5057 19.6021 30.238 19.077 30.0883L19.1684 21.6587C19.7636 21.5666 20.4037 21.2902 20.9515 20.9184L23.9242 23.827ZM27.719 24.0113C27.9451 24.2299 28.1018 24.5112 28.1693 24.8196C28.2367 25.128 28.2119 25.4497 28.0979 25.7438C27.9839 26.038 27.7859 26.2915 27.5289 26.4723C27.2719 26.6531 26.9674 26.753 26.654 26.7594C26.3407 26.7659 26.0324 26.6785 25.7683 26.5085C25.5042 26.3384 25.2961 26.0933 25.1702 25.804C25.0444 25.5148 25.0066 25.1944 25.0615 24.8835C25.1164 24.5726 25.2616 24.2851 25.4787 24.0573C25.6204 23.902 25.7918 23.7772 25.9826 23.6905C26.1735 23.6037 26.3797 23.5567 26.5891 23.5524C26.7984 23.5481 27.0064 23.5866 27.2006 23.6654C27.3948 23.7443 27.5711 23.8619 27.719 24.0113ZM32.2911 15.7659C32.5172 15.9846 32.6739 16.2659 32.7414 16.5743C32.8088 16.8827 32.784 17.2043 32.67 17.4985C32.556 17.7927 32.3579 18.0462 32.1009 18.227C31.8439 18.4077 31.5395 18.5077 31.2261 18.5141C30.9127 18.5206 30.6045 18.4332 30.3404 18.2632C30.0763 18.0931 29.8681 17.848 29.7423 17.5587C29.6165 17.2695 29.5786 16.9491 29.6336 16.6382C29.6885 16.3273 29.8336 16.0398 30.0507 15.812C30.6451 15.1671 31.7 15.1211 32.2911 15.7659ZM17.1118 5.35567C16.8093 5.06211 16.6346 4.65971 16.6261 4.23665C16.6175 3.81358 16.7757 3.40434 17.0661 3.09858C17.6604 2.49976 18.712 2.4537 19.3064 3.05252C19.9007 3.65134 19.9465 4.71079 19.3521 5.30961C18.7577 5.90843 17.7062 5.9545 17.1118 5.35567ZM7.28184 8.44191C6.97934 8.14834 6.80468 7.74594 6.79611 7.32288C6.78754 6.89981 6.94576 6.49057 7.23612 6.18481C7.83049 5.58599 8.88206 5.53993 9.47643 6.13875C9.77893 6.43231 9.9536 6.83471 9.96217 7.25778C9.97074 7.68085 9.81251 8.09009 9.52215 8.39584C8.92697 9.04073 7.87539 9.08679 7.28184 8.44191ZM1.8868 18.5297C1.59212 18.2346 1.42428 17.8347 1.41942 17.4161C1.41457 16.9975 1.57308 16.5937 1.86083 16.2917C2.14859 15.9898 2.54255 15.8137 2.95788 15.8015C3.37321 15.7893 3.77668 15.942 4.08139 16.2266C4.67576 16.8254 4.72148 17.8849 4.12711 18.4837C3.53274 19.1286 2.52607 19.1286 1.8868 18.5297ZM19.535 31.842C19.761 32.0607 19.9176 32.342 19.985 32.6504C20.0523 32.9588 20.0274 33.2803 19.9134 33.5744C19.7993 33.8685 19.6013 34.122 19.3443 34.3027C19.0873 34.4834 18.7829 34.5833 18.4696 34.5897C18.1563 34.5962 17.8481 34.5089 17.584 34.3389C17.3199 34.1689 17.1118 33.9238 16.9859 33.6346C16.8601 33.3454 16.8222 33.0252 16.877 32.7143C16.9318 32.4034 17.0769 32.1159 17.2939 31.8881C17.889 31.2432 18.8949 31.2432 19.535 31.842ZM30.9194 1.85488C31.2108 1.55011 31.6102 1.37414 32.0301 1.3655C32.4501 1.35687 32.8563 1.51628 33.1597 1.80881C33.7541 2.40763 33.7998 3.46709 33.2047 4.06591C32.9133 4.37067 32.5139 4.54664 32.0939 4.55528C31.674 4.56391 31.2678 4.4045 30.9643 4.11197C30.37 3.51315 30.3242 2.4537 30.9194 1.85488ZM12.814 25.3471C12.597 25.5749 12.3178 25.7328 12.0117 25.8008C11.7056 25.8687 11.3863 25.8437 11.0944 25.7288C10.8024 25.614 10.5508 25.4145 10.3713 25.1555C10.1919 24.8966 10.0927 24.5899 10.0863 24.2742C10.0799 23.9584 10.1666 23.6479 10.3354 23.3818C10.5042 23.1157 10.7475 22.906 11.0346 22.7793C11.3217 22.6525 11.6396 22.6144 11.9482 22.6697C12.2568 22.725 12.5422 22.8713 12.7683 23.09C13.4117 23.646 13.4117 24.7022 12.814 25.3471ZM16.1508 19.451C15.6987 19.0045 15.388 18.433 15.2583 17.8086C15.1285 17.1843 15.1854 16.5352 15.4218 15.9434C15.6582 15.3517 16.0634 14.8438 16.5863 14.4841C17.1091 14.1244 17.7261 13.9289 18.3592 13.9225C18.9923 13.916 19.6131 14.0989 20.1431 14.4479C20.6731 14.7969 21.0884 15.2964 21.3366 15.8832C21.5848 16.4701 21.6547 17.1179 21.5375 17.7447C21.4202 18.3716 21.1211 18.9493 20.678 19.4049C20.08 20.009 19.2705 20.3523 18.4238 20.3609C17.577 20.3695 16.7608 20.0428 16.1508 19.451Z" fill="#F24556"/>
<path d="M23.9242 23.827C23.6459 24.3917 23.5536 25.0311 23.6604 25.6523C23.7673 26.2735 24.0679 26.8443 24.5185 27.2817C24.9213 27.6887 25.4317 27.9704 25.9889 28.0933C26.5461 28.2162 27.1266 28.175 27.6613 27.9748C28.1959 27.7745 28.6621 27.4236 29.0044 26.9638C29.3466 26.5041 29.5504 25.9549 29.5914 25.3817C29.6325 24.8085 29.5091 24.2355 29.2359 23.731C28.9627 23.2265 28.5514 22.8118 28.0508 22.5363C27.5502 22.2608 26.9816 22.1361 26.4126 22.1771C25.8436 22.2181 25.2984 22.423 24.8418 22.7675L22.0072 20.0038C22.506 19.3643 22.8221 18.5998 22.9216 17.7927L28.3623 17.7006C28.5109 18.2297 28.7767 18.7179 29.1396 19.1286C29.56 19.5434 30.0931 19.8233 30.6715 19.9328C31.2498 20.0424 31.8474 19.9766 32.3887 19.744C32.93 19.5113 33.3906 19.1222 33.7123 18.6257C34.034 18.1293 34.2024 17.5479 34.1961 16.955C34.1898 16.3622 34.0092 15.7845 33.677 15.2951C33.3449 14.8057 32.8761 14.4266 32.33 14.2056C31.7839 13.9846 31.1851 13.9318 30.6092 14.0537C30.0333 14.1757 29.5062 14.467 29.0947 14.8907C28.7318 15.3014 28.466 15.7896 28.3174 16.3187L22.8734 16.4075C22.7812 15.8087 22.5068 15.1638 22.1386 14.6111L30.7357 5.67812C31.2962 5.95856 31.9309 6.0517 32.5475 5.94401C33.1641 5.83633 33.7307 5.53343 34.1648 5.0793C34.7084 4.50706 35.008 3.74319 34.9996 2.95117C34.9912 2.15915 34.6755 1.4019 34.1199 0.841486C32.9769 -0.310092 31.0566 -0.26403 29.9136 0.887549C29.4285 1.40098 29.1394 2.07075 29.0974 2.7783C29.0554 3.48586 29.2633 4.18557 29.6842 4.75356L21.2258 13.5056C20.5914 13.0033 19.8328 12.685 19.0321 12.5851L18.9398 7.05754C19.4649 6.90786 19.9495 6.64011 20.3571 6.27447C20.6305 5.99324 20.8463 5.66051 20.9921 5.29528C21.1378 4.93005 21.2108 4.53947 21.2067 4.14583C21.2027 3.7522 21.1217 3.36323 20.9684 3.00113C20.8152 2.63902 20.5926 2.31088 20.3135 2.03543C20.0343 1.75998 19.7041 1.54262 19.3415 1.39575C18.979 1.24889 18.5914 1.17541 18.2007 1.1795C17.8099 1.18358 17.4239 1.26516 17.0645 1.41957C16.705 1.57398 16.3793 1.7982 16.1059 2.07943C14.9629 3.23101 15.0078 5.16566 16.1508 6.31724C16.5585 6.68264 17.0431 6.9501 17.5682 7.09949L17.6596 12.6271C16.8515 12.7616 16.0938 13.1115 15.465 13.6405L10.7991 9.08679C11.622 7.88915 11.4849 6.23088 10.4333 5.22078C9.86522 4.67323 9.10697 4.37148 8.32083 4.38009C7.5347 4.3887 6.78314 4.70699 6.227 5.26684C5.08398 6.41842 5.1297 8.35307 6.27272 9.50465C7.23285 10.4259 8.60447 10.5641 9.74749 10.0113L14.5024 14.7098C14.1414 15.2653 13.9071 15.8946 13.8166 16.5523L5.81551 16.6444C5.66694 16.1154 5.40119 15.6271 5.03826 15.2165C4.47441 14.6602 3.7143 14.3523 2.92516 14.3607C2.13602 14.369 1.38248 14.6928 0.830324 15.2609C0.278163 15.829 -0.0273916 16.5948 -0.0191236 17.3898C-0.0108555 18.1849 0.310559 18.9441 0.874412 19.5004C2.01743 20.6519 3.9377 20.6059 5.08072 19.4543C5.44364 19.0436 5.70939 18.5554 5.85797 18.0263L13.8591 17.9342C13.9923 18.7485 14.3396 19.512 14.8649 20.1452L13.4117 21.7542C12.2229 20.925 10.577 21.0632 9.57441 22.1227C9.03102 22.695 8.73149 23.4588 8.73989 24.2508C8.74828 25.0427 9.06392 25.8 9.61931 26.3605C10.7623 27.5121 12.6826 27.466 13.8256 26.3144C14.74 25.3471 14.8772 23.9652 14.3285 22.8136L15.968 21.0139C16.5191 21.378 17.1438 21.614 17.7968 21.7048L17.7053 30.1344C17.1802 30.2841 16.6956 30.5518 16.288 30.9174C15.7445 31.4898 15.445 32.2537 15.4536 33.0457C15.4621 33.8377 15.778 34.5949 16.3337 35.1552C17.4767 36.3068 19.397 36.2608 20.54 35.1092C21.0835 34.5368 21.383 33.7729 21.3745 32.9809C21.3659 32.1889 21.05 31.4317 20.4943 30.8714C20.0867 30.5057 19.6021 30.238 19.077 30.0883L19.1684 21.6587C19.7636 21.5666 20.4037 21.2902 20.9515 20.9184L23.9242 23.827ZM27.719 24.0113C27.9451 24.2299 28.1018 24.5112 28.1693 24.8196C28.2367 25.128 28.2119 25.4497 28.0979 25.7438C27.9839 26.038 27.7859 26.2915 27.5289 26.4723C27.2719 26.6531 26.9674 26.753 26.654 26.7594C26.3407 26.7659 26.0324 26.6785 25.7683 26.5085C25.5042 26.3384 25.2961 26.0933 25.1702 25.804C25.0444 25.5148 25.0066 25.1944 25.0615 24.8835C25.1164 24.5726 25.2616 24.2851 25.4787 24.0573C25.6204 23.902 25.7918 23.7772 25.9826 23.6905C26.1735 23.6037 26.3797 23.5567 26.5891 23.5524C26.7984 23.5481 27.0064 23.5866 27.2006 23.6654C27.3948 23.7443 27.5711 23.8619 27.719 24.0113ZM32.2911 15.7659C32.5172 15.9846 32.6739 16.2659 32.7414 16.5743C32.8088 16.8827 32.784 17.2043 32.67 17.4985C32.556 17.7927 32.3579 18.0462 32.1009 18.227C31.8439 18.4077 31.5395 18.5077 31.2261 18.5141C30.9127 18.5206 30.6045 18.4332 30.3404 18.2632C30.0763 18.0931 29.8681 17.848 29.7423 17.5587C29.6165 17.2695 29.5786 16.9491 29.6336 16.6382C29.6885 16.3273 29.8336 16.0398 30.0507 15.812C30.6451 15.1671 31.7 15.1211 32.2911 15.7659ZM17.1118 5.35567C16.8093 5.06211 16.6346 4.65971 16.6261 4.23665C16.6175 3.81358 16.7757 3.40434 17.0661 3.09858C17.6604 2.49976 18.712 2.4537 19.3064 3.05252C19.9007 3.65134 19.9465 4.71079 19.3521 5.30961C18.7577 5.90843 17.7062 5.9545 17.1118 5.35567ZM7.28184 8.44191C6.97934 8.14834 6.80468 7.74594 6.79611 7.32288C6.78754 6.89981 6.94576 6.49057 7.23612 6.18481C7.83049 5.58599 8.88206 5.53993 9.47643 6.13875C9.77893 6.43231 9.9536 6.83471 9.96217 7.25778C9.97074 7.68085 9.81251 8.09009 9.52215 8.39584C8.92697 9.04073 7.87539 9.08679 7.28184 8.44191ZM1.8868 18.5297C1.59212 18.2346 1.42428 17.8347 1.41942 17.4161C1.41457 16.9975 1.57308 16.5937 1.86083 16.2917C2.14859 15.9898 2.54255 15.8137 2.95788 15.8015C3.37321 15.7893 3.77668 15.942 4.08139 16.2266C4.67576 16.8254 4.72148 17.8849 4.12711 18.4837C3.53274 19.1286 2.52607 19.1286 1.8868 18.5297ZM19.535 31.842C19.761 32.0607 19.9176 32.342 19.985 32.6504C20.0523 32.9588 20.0274 33.2803 19.9134 33.5744C19.7993 33.8685 19.6013 34.122 19.3443 34.3027C19.0873 34.4834 18.7829 34.5833 18.4696 34.5897C18.1563 34.5962 17.8481 34.5089 17.584 34.3389C17.3199 34.1689 17.1118 33.9238 16.9859 33.6346C16.8601 33.3454 16.8222 33.0252 16.877 32.7143C16.9318 32.4034 17.0769 32.1159 17.2939 31.8881C17.889 31.2432 18.8949 31.2432 19.535 31.842ZM30.9194 1.85488C31.2108 1.55011 31.6102 1.37414 32.0301 1.3655C32.4501 1.35687 32.8563 1.51628 33.1597 1.80881C33.7541 2.40763 33.7998 3.46709 33.2047 4.06591C32.9133 4.37067 32.5139 4.54664 32.0939 4.55528C31.674 4.56391 31.2678 4.4045 30.9643 4.11197C30.37 3.51315 30.3242 2.4537 30.9194 1.85488ZM12.814 25.3471C12.597 25.5749 12.3178 25.7328 12.0117 25.8008C11.7056 25.8687 11.3863 25.8437 11.0944 25.7288C10.8024 25.614 10.5508 25.4145 10.3713 25.1555C10.1919 24.8966 10.0927 24.5899 10.0863 24.2742C10.0799 23.9584 10.1666 23.6479 10.3354 23.3818C10.5042 23.1157 10.7475 22.906 11.0346 22.7793C11.3217 22.6525 11.6396 22.6144 11.9482 22.6697C12.2568 22.725 12.5422 22.8713 12.7683 23.09C13.4117 23.646 13.4117 24.7022 12.814 25.3471ZM16.1508 19.451C15.6987 19.0045 15.388 18.433 15.2583 17.8086C15.1285 17.1843 15.1854 16.5352 15.4218 15.9434C15.6582 15.3517 16.0634 14.8438 16.5863 14.4841C17.1091 14.1244 17.7261 13.9289 18.3592 13.9225C18.9923 13.916 19.6131 14.0989 20.1431 14.4479C20.6731 14.7969 21.0884 15.2964 21.3366 15.8832C21.5848 16.4701 21.6547 17.1179 21.5375 17.7447C21.4202 18.3716 21.1211 18.9493 20.678 19.4049C20.08 20.009 19.2705 20.3523 18.4238 20.3609C17.577 20.3695 16.7608 20.0428 16.1508 19.451Z" fill="#F24556"/>
<ellipse cx="18.4959" cy="17.1429" rx="3.41463" ry="3.42857" fill="#F24556"/>
</g>
<defs>
<clipPath id="clip0_6_108">
<rect width="35" height="36" fill="white"/>
</clipPath>
</defs>
</svg>
